<svg width="2669" height="498" viewBox="0 0 2669 498" fill="none" xmlns="http://www.w3.org/2000/svg">
<path d="M247.612 370.564C243.368 366.427 243.261 359.644 247.372 355.375L309.241 291.131C313.322 286.893 313.251 280.17 309.08 276.02L302.579 269.552C298.473 265.466 291.869 265.348 287.619 269.284L264.182 290.992C259.809 295.043 252.975 294.784 248.921 290.414L212.626 251.281C208.788 247.143 208.792 240.751 212.634 236.618L309.583 132.334C313.507 128.114 313.417 121.559 309.379 117.447L302.725 110.673C298.574 106.447 291.789 106.354 287.523 110.464L264.94 132.22C260.681 136.322 253.909 136.237 249.756 132.028L229.012 111.005C224.719 106.654 217.667 106.731 213.47 111.174L207.258 117.751C203.28 121.961 203.342 128.557 207.397 132.693L229.893 155.637C233.876 159.699 234.016 166.154 230.21 170.385L191.828 213.065C187.635 217.726 180.362 217.85 176.014 213.333L153.885 190.347C149.595 185.889 142.437 185.941 138.213 190.46L131.659 197.469C127.763 201.636 127.789 208.113 131.718 212.248L229.847 315.544C233.831 319.738 233.794 326.323 229.764 330.472L227.95 332.339C223.695 336.719 216.652 336.702 212.418 332.302L191.112 310.161C186.593 305.464 178.967 305.812 174.895 310.901L170.674 316.176C167.298 320.395 167.568 326.456 171.305 330.359L272.555 436.107C274.475 438.112 275.548 440.782 275.548 443.558V486.792C275.548 492.747 280.381 497.574 286.344 497.574H305.798C311.76 497.574 316.594 492.747 316.594 486.792V446.754C316.594 444.137 317.549 441.606 319.282 439.637L382.924 367.348C386.549 363.231 386.504 357.054 382.819 352.991L362.133 330.18C358.445 326.113 358.403 319.929 362.037 315.812L362.986 314.737C367.07 310.11 374.199 309.84 378.621 314.146L400.737 335.683C405.047 339.879 411.961 339.745 416.104 335.384L457.63 291.682C461.689 287.411 461.566 280.678 457.352 276.557L449.834 269.204C445.604 265.067 438.827 265.104 434.643 269.287L414.69 289.236C410.487 293.439 403.674 293.455 399.451 289.273L361.773 251.959C357.765 247.99 357.495 241.609 361.152 237.315L382.64 212.096C386.157 207.968 386.059 201.873 382.41 197.861L376.729 191.614C372.544 187.013 365.342 186.888 361.001 191.342L319.518 233.908C315.621 237.907 315.423 244.215 319.061 248.449L342.439 275.662C346.023 279.835 345.891 286.032 342.132 290.047L319.133 314.615C315.42 318.582 315.24 324.688 318.714 328.866L340.641 355.239C344.131 359.435 343.932 365.575 340.178 369.537L302.764 409.024C298.621 413.396 291.695 413.533 287.382 409.329L247.612 370.564Z" fill="#2B6BF3"/>
<path d="M305.388 370.759C299.592 376.631 290.034 376.549 284.25 370.664C278.557 364.871 278.55 355.503 284.32 349.785C290.126 344.031 299.578 344.154 305.319 349.972C310.989 355.716 311.058 365.014 305.388 370.759Z" fill="#FF6309"/>
<path d="M155.829 292.576C150.012 298.459 140.501 298.458 134.686 292.573C129.114 286.936 128.959 277.923 134.332 272.098L134.696 271.703C140.446 265.471 150.244 265.3 156.206 271.331C161.924 277.113 161.924 286.411 156.206 292.193L155.829 292.576Z" fill="#FF6309"/>
<path d="M95.3859 237.398C89.5686 243.281 80.0576 243.28 74.242 237.396C68.6709 231.758 68.5155 222.745 73.8886 216.92L74.2528 216.525C80.0026 210.293 89.8006 210.123 95.7631 216.153C101.481 221.936 101.481 231.233 95.7631 237.016L95.3859 237.398Z" fill="#FF6309"/>
<path d="M171.676 174.701C166.032 168.77 166.095 159.443 171.82 153.587C177.933 147.335 188.05 147.497 193.959 153.941L194.858 154.921C200.417 160.984 200.145 170.362 194.244 176.093C188.166 181.994 178.432 181.803 172.592 175.665L171.676 174.701Z" fill="#FF6309"/>
<path d="M283.034 212.445C277.943 206.736 278.007 198.103 283.183 192.469C288.881 186.269 298.586 186.01 304.607 191.899L306.061 193.323C311.905 199.04 312.077 208.383 306.447 214.311C300.41 220.666 290.222 220.506 284.388 213.964L283.034 212.445Z" fill="#FF6309"/>
<path d="M321.014 95.698C315.399 89.6025 315.689 80.1432 321.67 74.4043C327.696 68.6206 337.26 68.7585 343.116 74.7134L343.735 75.3423C349.544 81.2491 349.571 90.7061 343.796 96.6457C337.688 102.927 327.549 102.791 321.613 96.3474L321.014 95.698Z" fill="#FF6309"/>
<path d="M395.538 174.925C389.973 169.068 390.022 159.87 395.651 154.075C401.43 148.125 410.939 147.96 416.921 153.705L417.299 154.068C423.278 159.81 423.494 169.296 417.783 175.304C411.834 181.562 401.848 181.562 395.898 175.303L395.538 174.925Z" fill="#FF6309"/>
<path d="M469.227 253.364C463.3 247.314 463.35 237.626 469.34 231.637C475.384 225.592 485.194 225.592 491.239 231.637L491.946 232.345C497.65 238.049 498.008 247.172 492.769 253.304C486.863 260.217 476.29 260.576 469.927 254.08L469.227 253.364Z" fill="#FF6309"/>
<path fill-rule="evenodd" clip-rule="evenodd" d="M442.952 159.468C406.756 54.7934 336.313 28.8996 295.428 31.1506L295.002 31.174H294.576C205.43 31.174 168.519 88.3571 155.695 120.198L151.783 129.913H141.31C96.7327 129.913 70.0124 146.21 54.0391 165.186C37.647 184.661 31.57 208.196 31.0166 223.45C31.0906 262.551 47.9256 284.197 68.1196 296.552C89.3953 309.569 115.643 312.888 133.18 311.706C141.725 311.13 149.12 317.591 149.696 326.137C150.271 334.682 143.81 342.077 135.265 342.652C113.23 344.137 80.121 340.256 51.9325 323.01C22.7067 305.129 0 273.516 0 223.191V222.939L0.00822095 222.686C0.692802 201.67 8.63653 170.961 30.31 145.213C51.0388 120.586 83.4787 101.537 131.082 99.1492C149.851 59.7203 196.212 0.32677 294.157 0.158032C348.489 -2.63187 427.307 31.039 468.638 139.352C493.393 141.425 518.248 150.545 537.914 167.884C560.837 188.093 575.538 218.455 575.538 258.387V258.587L575.533 258.786C575.208 271.424 572.926 292.997 557.373 311.394C541.397 330.293 514.201 342.687 470.875 342.687C462.31 342.687 455.367 335.744 455.367 327.179C455.367 318.614 462.31 311.671 470.875 311.671C508.347 311.671 525.432 301.135 533.687 291.37C542.309 281.17 544.237 268.445 544.522 258.186C544.474 226.556 533.098 204.987 517.403 191.149C501.345 176.993 479.575 169.908 457.608 169.908H446.562L442.952 159.468Z" fill="#2B6BF3"/>
<path d="M656.851 354.616V203.954H709.666V354.616H656.851ZM683.259 187.275C673.622 187.275 665.839 184.588 659.909 179.214C653.979 173.84 651.014 167.168 651.014 159.2C651.014 151.231 653.979 144.56 659.909 139.185C665.839 133.811 673.622 131.124 683.259 131.124C692.895 131.124 700.678 133.719 706.609 138.907C712.539 143.911 715.504 150.397 715.504 158.366C715.504 166.705 712.539 173.654 706.609 179.214C700.864 184.588 693.08 187.275 683.259 187.275ZM940.24 201.452C951.915 201.452 962.293 203.861 971.374 208.679C980.639 213.312 987.867 220.539 993.056 230.361C998.43 240.183 1001.12 252.877 1001.12 268.444V354.616H948.302V277.061C948.302 266.313 946.263 258.529 942.186 253.711C938.109 248.708 932.55 246.206 925.508 246.206C920.504 246.206 915.964 247.41 911.887 249.82C907.81 252.229 904.659 255.935 902.436 260.939C900.212 265.757 899.1 272.058 899.1 279.841V354.616H846.285V277.061C846.285 266.313 844.246 258.529 840.169 253.711C836.278 248.708 830.718 246.206 823.491 246.206C818.302 246.206 813.669 247.41 809.592 249.82C805.7 252.229 802.55 255.935 800.141 260.939C797.917 265.757 796.805 272.058 796.805 279.841V354.616H743.99V203.954H794.303V245.928L784.296 233.975C789.856 223.227 797.454 215.165 807.09 209.791C816.727 204.232 827.475 201.452 839.335 201.452C852.863 201.452 864.724 204.973 874.916 212.015C885.294 218.872 892.243 229.62 895.764 244.26L878.53 240.646C883.904 228.415 891.965 218.872 902.714 212.015C913.647 204.973 926.156 201.452 940.24 201.452ZM1230.7 201.452C1242.38 201.452 1252.76 203.861 1261.84 208.679C1271.1 213.312 1278.33 220.539 1283.52 230.361C1288.89 240.183 1291.58 252.877 1291.58 268.444V354.616H1238.76V277.061C1238.76 266.313 1236.73 258.529 1232.65 253.711C1228.57 248.708 1223.01 246.206 1215.97 246.206C1210.97 246.206 1206.43 247.41 1202.35 249.82C1198.27 252.229 1195.12 255.935 1192.9 260.939C1190.67 265.757 1189.56 272.058 1189.56 279.841V354.616H1136.75V277.061C1136.75 266.313 1134.71 258.529 1130.63 253.711C1126.74 248.708 1121.18 246.206 1113.95 246.206C1108.76 246.206 1104.13 247.41 1100.05 249.82C1096.16 252.229 1093.01 255.935 1090.6 260.939C1088.38 265.757 1087.27 272.058 1087.27 279.841V354.616H1034.45V203.954H1084.77V245.928L1074.76 233.975C1080.32 223.227 1087.92 215.165 1097.55 209.791C1107.19 204.232 1117.94 201.452 1129.8 201.452C1143.33 201.452 1155.19 204.973 1165.38 212.015C1175.76 218.872 1182.71 229.62 1186.23 244.26L1168.99 240.646C1174.37 228.415 1182.43 218.872 1193.18 212.015C1204.11 204.973 1216.62 201.452 1230.7 201.452ZM1405.76 357.118C1387.97 357.118 1372.4 353.782 1359.06 347.111C1345.9 340.254 1335.62 330.988 1328.2 319.313C1320.98 307.453 1317.36 294.018 1317.36 279.007C1317.36 263.996 1320.88 250.653 1327.93 238.978C1335.15 227.118 1345.07 217.945 1357.67 211.459C1370.27 204.788 1384.45 201.452 1400.2 201.452C1415.03 201.452 1428.55 204.51 1440.78 210.625C1453.02 216.555 1462.74 225.358 1469.97 237.033C1477.2 248.708 1480.81 262.884 1480.81 279.563C1480.81 281.416 1480.72 283.547 1480.54 285.956C1480.35 288.365 1480.16 290.589 1479.98 292.628H1360.73V264.83H1451.9L1431.89 272.613C1432.07 265.757 1430.78 259.827 1428 254.823C1425.4 249.82 1421.7 245.928 1416.88 243.148C1412.25 240.368 1406.78 238.978 1400.48 238.978C1394.18 238.978 1388.62 240.368 1383.8 243.148C1379.17 245.928 1375.55 249.912 1372.96 255.101C1370.36 260.105 1369.07 266.035 1369.07 272.891V280.953C1369.07 288.365 1370.55 294.759 1373.51 300.133C1376.67 305.507 1381.11 309.677 1386.86 312.642C1392.6 315.422 1399.46 316.812 1407.43 316.812C1414.84 316.812 1421.14 315.792 1426.33 313.754C1431.7 311.53 1436.99 308.194 1442.17 303.747L1469.97 332.656C1462.74 340.625 1453.85 346.74 1443.29 351.003C1432.72 355.08 1420.21 357.118 1405.76 357.118ZM1505.16 354.616V203.954H1555.48V247.874L1547.97 235.365C1552.42 224.06 1559.65 215.629 1569.65 210.069C1579.66 204.324 1591.8 201.452 1606.07 201.452V248.986C1603.66 248.615 1601.53 248.43 1599.68 248.43C1598.01 248.244 1596.15 248.152 1594.12 248.152C1583.37 248.152 1574.66 251.117 1567.99 257.047C1561.32 262.792 1557.98 272.243 1557.98 285.4V354.616H1505.16ZM1683.17 357.118C1670.38 357.118 1657.87 355.635 1645.64 352.67C1633.6 349.705 1623.87 345.999 1616.45 341.551L1632.3 305.415C1639.34 309.677 1647.59 313.105 1657.04 315.7C1666.49 318.109 1675.76 319.313 1684.84 319.313C1693.73 319.313 1699.85 318.387 1703.18 316.534C1706.7 314.68 1708.46 312.179 1708.46 309.028C1708.46 306.063 1706.8 303.932 1703.46 302.635C1700.31 301.152 1696.05 300.04 1690.67 299.299C1685.48 298.558 1679.74 297.724 1673.44 296.797C1667.14 295.871 1660.75 294.666 1654.26 293.184C1647.96 291.516 1642.12 289.107 1636.75 285.956C1631.56 282.621 1627.39 278.173 1624.24 272.613C1621.09 267.054 1619.51 260.012 1619.51 251.487C1619.51 241.851 1622.29 233.326 1627.85 225.914C1633.6 218.316 1641.94 212.386 1652.87 208.123C1663.8 203.676 1677.15 201.452 1692.9 201.452C1703.46 201.452 1714.12 202.564 1724.86 204.788C1735.8 206.826 1744.97 209.976 1752.38 214.239L1736.54 250.098C1729.13 245.835 1721.71 242.963 1714.3 241.48C1706.89 239.812 1699.85 238.978 1693.18 238.978C1684.28 238.978 1677.98 239.998 1674.27 242.036C1670.75 244.075 1668.99 246.576 1668.99 249.542C1668.99 252.507 1670.57 254.823 1673.72 256.491C1676.87 257.973 1681.04 259.178 1686.23 260.105C1691.6 260.846 1697.44 261.68 1703.74 262.606C1710.04 263.348 1716.34 264.552 1722.64 266.22C1729.13 267.888 1734.96 270.39 1740.15 273.725C1745.53 276.876 1749.79 281.231 1752.94 286.79C1756.09 292.164 1757.67 299.114 1757.67 307.638C1757.67 316.904 1754.79 325.243 1749.05 332.656C1743.49 340.069 1735.15 345.999 1724.03 350.447C1713.1 354.894 1699.48 357.118 1683.17 357.118ZM1936.15 357.118C1919.47 357.118 1904.55 353.782 1891.39 347.111C1878.42 340.439 1868.23 331.266 1860.82 319.591C1853.4 307.731 1849.7 294.203 1849.7 279.007C1849.7 263.811 1853.4 250.375 1860.82 238.701C1868.23 227.026 1878.42 217.945 1891.39 211.459C1904.55 204.788 1919.47 201.452 1936.15 201.452C1953.2 201.452 1967.93 205.066 1980.35 212.293C1992.76 219.52 2001.56 229.713 2006.75 242.87L1965.89 263.718C1962.37 256.676 1958.01 251.58 1952.83 248.43C1947.64 245.094 1941.99 243.426 1935.87 243.426C1929.75 243.426 1924.19 244.816 1919.19 247.596C1914.19 250.375 1910.2 254.452 1907.24 259.827C1904.46 265.016 1903.07 271.409 1903.07 279.007C1903.07 286.79 1904.46 293.369 1907.24 298.743C1910.2 304.117 1914.19 308.194 1919.19 310.974C1924.19 313.754 1929.75 315.144 1935.87 315.144C1941.99 315.144 1947.64 313.569 1952.83 310.418C1958.01 307.082 1962.37 301.894 1965.89 294.852L2006.75 315.7C2001.56 328.857 1992.76 339.05 1980.35 346.277C1967.93 353.504 1953.2 357.118 1936.15 357.118ZM2026.1 354.616V148.359H2078.91V354.616H2026.1ZM2188.84 357.118C2172.35 357.118 2157.71 353.782 2144.92 347.111C2132.14 340.439 2122.04 331.266 2114.63 319.591C2107.4 307.731 2103.78 294.203 2103.78 279.007C2103.78 263.811 2107.4 250.375 2114.63 238.701C2122.04 227.026 2132.14 217.945 2144.92 211.459C2157.71 204.788 2172.35 201.452 2188.84 201.452C2205.34 201.452 2219.98 204.788 2232.76 211.459C2245.74 217.945 2255.84 227.026 2263.06 238.701C2270.29 250.375 2273.9 263.811 2273.9 279.007C2273.9 294.203 2270.29 307.731 2263.06 319.591C2255.84 331.266 2245.74 340.439 2232.76 347.111C2219.98 353.782 2205.34 357.118 2188.84 357.118ZM2188.84 315.144C2194.96 315.144 2200.33 313.754 2204.97 310.974C2209.79 308.194 2213.58 304.117 2216.36 298.743C2219.14 293.184 2220.53 286.605 2220.53 279.007C2220.53 271.409 2219.14 265.016 2216.36 259.827C2213.58 254.452 2209.79 250.375 2204.97 247.596C2200.33 244.816 2194.96 243.426 2188.84 243.426C2182.91 243.426 2177.54 244.816 2172.72 247.596C2168.09 250.375 2164.29 254.452 2161.32 259.827C2158.55 265.016 2157.16 271.409 2157.16 279.007C2157.16 286.605 2158.55 293.184 2161.32 298.743C2164.29 304.117 2168.09 308.194 2172.72 310.974C2177.54 313.754 2182.91 315.144 2188.84 315.144ZM2361.75 357.118C2349.52 357.118 2338.49 354.709 2328.67 349.891C2319.03 345.072 2311.44 337.567 2305.88 327.375C2300.5 316.997 2297.82 303.932 2297.82 288.18V203.954H2350.63V279.563C2350.63 291.238 2352.76 299.577 2357.02 304.581C2361.47 309.584 2367.68 312.086 2375.65 312.086C2380.84 312.086 2385.56 310.881 2389.82 308.472C2394.09 306.063 2397.52 302.264 2400.11 297.075C2402.7 291.701 2404 284.844 2404 276.505V203.954H2456.82V354.616H2406.5V312.086L2416.23 324.039C2411.04 335.158 2403.54 343.497 2393.72 349.057C2383.89 354.431 2373.24 357.118 2361.75 357.118ZM2556.44 357.118C2542.73 357.118 2530.22 353.968 2518.91 347.667C2507.79 341.181 2498.9 332.193 2492.23 320.703C2485.55 309.028 2482.22 295.129 2482.22 279.007C2482.22 263.07 2485.55 249.356 2492.23 237.867C2498.9 226.192 2507.79 217.204 2518.91 210.903C2530.22 204.602 2542.73 201.452 2556.44 201.452C2569.41 201.452 2580.34 204.232 2589.24 209.791C2598.32 215.351 2605.18 223.875 2609.81 235.365C2614.44 246.854 2616.76 261.402 2616.76 279.007C2616.76 296.983 2614.54 311.715 2610.09 323.205C2605.64 334.695 2598.97 343.219 2590.07 348.779C2581.18 354.338 2569.97 357.118 2556.44 357.118ZM2567.56 315.144C2573.49 315.144 2578.77 313.754 2583.4 310.974C2588.22 308.194 2592.02 304.117 2594.8 298.743C2597.58 293.184 2598.97 286.605 2598.97 279.007C2598.97 271.409 2597.58 265.016 2594.8 259.827C2592.02 254.452 2588.22 250.375 2583.4 247.596C2578.77 244.816 2573.49 243.426 2567.56 243.426C2561.44 243.426 2555.98 244.816 2551.16 247.596C2546.52 250.375 2542.82 254.452 2540.04 259.827C2537.26 265.016 2535.87 271.409 2535.87 279.007C2535.87 286.605 2537.26 293.184 2540.04 298.743C2542.82 304.117 2546.52 308.194 2551.16 310.974C2555.98 313.754 2561.44 315.144 2567.56 315.144ZM2600.64 354.616V328.765L2600.91 279.007L2598.13 229.249V148.359H2650.95V354.616H2600.64Z" fill="black"/>
<path d="M1802.66 357.118C1793.77 357.118 1786.26 354.153 1780.15 348.223C1774.03 342.293 1770.97 334.787 1770.97 325.707C1770.97 316.256 1774.03 308.75 1780.15 303.191C1786.26 297.446 1793.77 294.574 1802.66 294.574C1811.56 294.574 1819.06 297.446 1825.18 303.191C1831.29 308.75 1834.35 316.256 1834.35 325.707C1834.35 334.787 1831.29 342.293 1825.18 348.223C1819.06 354.153 1811.56 357.118 1802.66 357.118Z" fill="#FF620A"/>
<ellipse cx="683.5" cy="159" rx="32.5" ry="31" fill="#FF6309"/>
</svg>
